<svg width="416" height="241" viewBox="0 0 416 241" fill="none" xmlns="http://www.w3.org/2000/svg">
<path d="M347.358 12.05C347.358 59.9879 330.414 108.45 304.997 139.86C271.109 172.717 271.109 192.8 173.867 192.8C76.6255 192.8 76.2493 177.658 39.0762 139.86C1.9031 102.061 0 64.0045 0 16.0667H33.8886C33.8886 84.35 63.0226 117.153 63.0226 117.153C63.0226 117.153 89.1456 160.688 173.867 160.688C258.589 160.688 279.581 117.153 279.581 117.153C279.581 117.153 308.658 68.2833 308.658 12.05H347.358Z" fill="#F9D9AA"/>
<path d="M288.053 12.8128C288.053 47.7649 275.557 81.2853 253.313 106.001C231.069 130.715 200.9 144.6 169.443 144.6C137.986 144.6 107.817 130.715 85.5729 106.001C63.3293 81.2853 50.8329 47.7649 50.8329 12.8128C50.8329 12.8128 118.61 41.6414 169.443 12.8128C220.276 -16.016 288.053 12.8128 288.053 12.8128Z" fill="#F9D9AA"/>
<path d="M308.891 76.536C312.331 87.2163 319.311 96.5607 328.796 103.181C338.281 109.801 349.765 113.346 361.542 113.286C373.319 113.227 384.762 109.567 394.173 102.852C403.583 96.1374 410.459 86.7231 413.78 76.0086C417.1 65.2939 416.687 53.8496 412.604 43.3747C408.52 32.8999 400.983 23.9529 391.111 17.8622C381.239 11.7714 369.559 8.8616 357.805 9.5646C346.051 10.2677 334.849 14.5462 325.862 21.7649L344.093 42.1688C348.45 38.6686 353.882 36.5942 359.581 36.2533C365.28 35.9124 370.943 37.3233 375.729 40.2765C380.516 43.2297 384.171 47.5678 386.151 52.6468C388.131 57.7257 388.331 63.2747 386.721 68.4699C385.111 73.6651 381.777 78.2297 377.215 81.4854C372.652 84.7421 367.103 86.5158 361.393 86.5448C355.682 86.5737 350.114 84.8553 345.515 81.6452C340.916 78.4351 337.531 73.9045 335.864 68.7257L308.891 76.536Z" fill="#F9D9AA"/>
<path d="M328.341 216.9H19.0172C13.1933 216.9 8.4721 222.295 8.4721 228.95C8.4721 235.605 13.1933 241 19.0172 241H328.341C334.165 241 338.886 235.605 338.886 228.95C338.886 222.295 334.165 216.9 328.341 216.9Z" fill="#F9D9AA"/>
</svg>
