<svg width="145" height="30" viewBox="0 0 145 30" fill="none" xmlns="http://www.w3.org/2000/svg">
<path fill-rule="evenodd" clip-rule="evenodd" d="M36 17.4099C32 21.5 32 24 20.5222 24C9.0444 24 9 22.1151 4.61232 17.4099C0.22463 12.7047 0 7.96737 0 2H4C4 10.5 7.4388 14.5834 7.4388 14.5834C7.4388 14.5834 10.5222 20.0027 20.5222 20.0027C30.5222 20.0027 33 14.5834 33 14.5834C33 14.5834 36.4321 8.5 36.4321 1.5H40.6249C41.1425 1.33011 41.6827 1.22534 42.2331 1.19062C43.6205 1.10311 44.9991 1.46533 46.1643 2.22351C47.3296 2.9817 48.2192 4.09543 48.7012 5.39935C49.1832 6.70327 49.2319 8.12787 48.84 9.46165C48.4481 10.7954 47.6365 11.9673 46.5258 12.8032C45.415 13.6391 44.0643 14.0946 42.6742 14.102C41.2841 14.1094 39.9286 13.6682 38.8091 12.8441C38.7668 12.813 38.725 12.7814 38.6835 12.7493C37.9322 14.4923 37.0244 16.0748 36 17.4099ZM44.3488 5.01368C43.7838 4.64606 43.1154 4.47043 42.4427 4.51286C41.832 4.55139 41.2473 4.76778 40.7599 5.13338C40.578 6.52296 40.2966 7.89148 39.9286 9.21041C40.1434 9.58121 40.4333 9.90626 40.7825 10.1633C41.3253 10.5629 41.9825 10.7768 42.6566 10.7732C43.3306 10.7696 43.9855 10.5488 44.5241 10.1434C45.0626 9.73814 45.4561 9.16994 45.6462 8.52323C45.8362 7.87652 45.8126 7.18578 45.5789 6.55355C45.3452 5.92131 44.9138 5.3813 44.3488 5.01368Z" fill="#2F2105"/>
<path d="M38.7553 27H2.24468C1.55726 27 1 27.6716 1 28.5C1 29.3284 1.55726 30 2.24468 30H38.7553C39.4427 30 40 29.3284 40 28.5C40 27.6716 39.4427 27 38.7553 27Z" fill="#2F2105"/>
<path d="M34 1.59495C34 5.94584 32.525 10.1185 29.8995 13.1951C27.274 16.2716 23.713 18 20 18C16.287 18 12.726 16.2716 10.1005 13.1951C7.475 10.1185 6 5.94584 6 1.59495C6 1.59495 14 5.18358 20 1.59495C26 -1.99369 34 1.59495 34 1.59495Z" fill="#FF912B"/>
<path d="M62.0838 21.3049C60.6391 21.3049 59.3826 21.0425 58.3143 20.5175C57.2459 19.9804 56.4265 19.2235 55.8559 18.2468C55.2853 17.2702 55 16.1348 55 14.8408C55 13.0462 55.3339 11.453 56.0016 10.0613C56.6814 8.66959 57.598 7.59528 58.7513 6.83838C59.9047 6.06927 61.1855 5.68471 62.5937 5.68471C63.9049 5.68471 64.9004 6.02654 65.5802 6.71019C66.2601 7.38163 66.6 8.27282 66.6 9.38376C66.6 10.1285 66.4665 10.7266 66.1994 11.1783C65.9444 11.63 65.5742 11.8559 65.0886 11.8559C64.7486 11.8559 64.4815 11.7765 64.2873 11.6178C64.0931 11.4591 63.9959 11.2272 63.9959 10.922C63.9959 10.8121 64.0202 10.6107 64.0688 10.3177C64.1416 9.95143 64.178 9.65844 64.178 9.43869C64.178 8.32776 63.5892 7.77229 62.4116 7.77229C61.6104 7.77229 60.8455 8.03477 60.1171 8.55971C59.3887 9.08466 58.7999 9.85987 58.3507 10.8853C57.9015 11.8986 57.6769 13.1072 57.6769 14.5111C57.6769 15.9761 58.0836 17.1115 58.897 17.9172C59.7104 18.7107 60.9123 19.1075 62.5027 19.1075C63.2918 19.1075 64.087 19.0098 64.8882 18.8145C65.7016 18.607 66.6 18.2956 67.5834 17.8806C67.7655 17.8073 67.9172 17.7707 68.0386 17.7707C68.2329 17.7707 68.3786 17.8439 68.4757 17.9904C68.5728 18.1369 68.6214 18.3262 68.6214 18.5581C68.6214 19.3028 68.2207 19.8522 67.4195 20.2062C66.5575 20.5847 65.6591 20.8654 64.7243 21.0486C63.8017 21.2195 62.9215 21.3049 62.0838 21.3049ZM69.4326 21.3049C68.6799 21.3049 68.0789 21.0303 67.6298 20.4809C67.1806 19.9315 66.956 19.2113 66.956 18.3201C66.956 17.3434 67.1806 16.4217 67.6298 15.5549C68.0789 14.676 68.6738 13.974 69.4144 13.449C70.1671 12.9119 70.9623 12.6433 71.8 12.6433C72.0671 12.6433 72.2431 12.6982 72.3281 12.8081C72.4252 12.9058 72.5041 13.0889 72.5648 13.3575C72.8198 13.3087 73.0869 13.2842 73.3661 13.2842C73.961 13.2842 74.2584 13.4979 74.2584 13.9252C74.2584 14.1815 74.1673 14.7919 73.9852 15.7564C73.706 17.1603 73.5664 18.1369 73.5664 18.6863C73.5664 18.8694 73.6089 19.0159 73.6939 19.1258C73.791 19.2357 73.9124 19.2906 74.0581 19.2906C74.2887 19.2906 74.568 19.1441 74.8958 18.8511C75.2235 18.5459 75.6667 18.0576 76.2251 17.3861C76.3708 17.2152 76.5347 17.1298 76.7168 17.1298C76.8746 17.1298 76.996 17.203 77.081 17.3495C77.1781 17.496 77.2267 17.6974 77.2267 17.9538C77.2267 18.4421 77.1113 18.8206 76.8807 19.0892C76.3829 19.7118 75.8548 20.2367 75.2964 20.664C74.7379 21.0913 74.1977 21.3049 73.6757 21.3049C73.275 21.3049 72.9048 21.1706 72.5648 20.9021C72.237 20.6213 71.9882 20.2428 71.8182 19.7667C71.1869 20.7922 70.3917 21.3049 69.4326 21.3049ZM70.0882 19.4554C70.3553 19.4554 70.6102 19.2967 70.853 18.9793C71.0959 18.6619 71.2719 18.2407 71.3812 17.7158L72.0549 14.3463C71.545 14.3585 71.0716 14.5539 70.6345 14.9323C70.2096 15.2986 69.8697 15.7869 69.6147 16.3973C69.3598 17.0077 69.2323 17.6547 69.2323 18.3384C69.2323 18.7168 69.3052 18.9976 69.4508 19.1807C69.6087 19.3639 69.8211 19.4554 70.0882 19.4554ZM82.8347 16.086C83.1746 16.086 83.3446 16.3424 83.3446 16.8551C83.3446 17.8195 82.5919 18.3017 81.0865 18.3017C80.7952 18.3017 80.3763 18.2468 79.83 18.1369C79.9878 18.8938 80.1153 19.7362 80.2124 20.664C80.3217 21.5796 80.3763 22.3365 80.3763 22.9347C80.3763 24.2532 80.1639 25.2604 79.739 25.9562C79.314 26.6521 78.7556 27 78.0636 27C77.1895 27 76.5643 26.3774 76.1879 25.1322C75.8237 23.8869 75.6416 22.0069 75.6416 19.492C75.6416 17.1481 75.8905 14.7736 76.3882 12.3686C76.8981 9.95143 77.5901 7.95541 78.4642 6.38057C79.3505 4.79352 80.3217 4 81.3779 4C81.9485 4 82.3916 4.25637 82.7072 4.7691C83.035 5.28184 83.1989 5.9716 83.1989 6.83838C83.1989 9.70727 81.4932 12.8325 78.0818 16.2142C77.9604 17.4106 77.8997 18.4605 77.8997 19.3638C77.8997 20.6213 77.9422 21.9092 78.0272 23.2277C78.1122 24.5584 78.2518 25.2237 78.446 25.2237C78.8102 25.2237 78.9923 24.5889 78.9923 23.3193C78.9923 22.367 78.9256 21.4453 78.792 20.5541C78.6706 19.663 78.5007 18.7229 78.2821 17.7341C78.27 17.5754 78.3185 17.3739 78.4278 17.1298C78.5492 16.8856 78.6949 16.672 78.8649 16.4889C79.0348 16.3057 79.1866 16.2142 79.3201 16.2142C79.5629 16.2142 79.8543 16.2264 80.1942 16.2508C80.3035 16.263 80.431 16.2691 80.5766 16.2691C81.0622 16.2691 81.6025 16.2264 82.1974 16.1409C82.2945 16.1287 82.3977 16.1165 82.5069 16.1043C82.6162 16.0921 82.7255 16.086 82.8347 16.086ZM80.9955 5.8129C80.7769 5.8129 80.5038 6.18524 80.176 6.92993C79.8604 7.67463 79.5447 8.66348 79.2291 9.89649C78.9134 11.1173 78.6403 12.4114 78.4096 13.7787C79.3808 12.6677 80.1274 11.5141 80.6495 10.3177C81.1715 9.10908 81.4386 7.97983 81.4507 6.92993C81.4507 6.18524 81.299 5.8129 80.9955 5.8129ZM88.4901 17.6791C88.6479 17.6791 88.7693 17.7524 88.8543 17.8989C88.9514 18.0454 89 18.2468 89 18.5032C89 18.9427 88.8968 19.3211 88.6904 19.6385C88.3505 20.1635 87.9013 20.5725 87.3429 20.8654C86.7965 21.1584 86.141 21.3049 85.3761 21.3049C84.2107 21.3049 83.3062 20.957 82.6628 20.2611C82.0194 19.5531 81.6976 18.6009 81.6976 17.4045C81.6976 16.5621 81.8737 15.7808 82.2257 15.0605C82.5778 14.328 83.0634 13.7481 83.6826 13.3209C84.3139 12.8936 85.0241 12.6799 85.8132 12.6799C86.5173 12.6799 87.0818 12.8936 87.5067 13.3209C87.9317 13.7359 88.1441 14.3036 88.1441 15.0239C88.1441 15.8662 87.8406 16.5926 87.2336 17.203C86.6387 17.8012 85.6189 18.2773 84.1742 18.6314C84.4656 19.1929 84.9573 19.4737 85.6493 19.4737C86.147 19.4737 86.5537 19.3577 86.8694 19.1258C87.1972 18.8938 87.5735 18.5032 87.9984 17.9538C88.1441 17.7707 88.308 17.6791 88.4901 17.6791ZM85.5036 14.4745C85.0544 14.4745 84.672 14.737 84.3564 15.2619C84.0528 15.7869 83.9011 16.4217 83.9011 17.1664V17.203C84.6174 17.0321 85.1819 16.7757 85.5947 16.4339C86.0074 16.0921 86.2138 15.6953 86.2138 15.2436C86.2138 15.0117 86.147 14.8286 86.0135 14.6943C85.8921 14.5478 85.7221 14.4745 85.5036 14.4745Z" fill="#FF912B"/>
<path d="M100.365 21C98.7418 21 97.4416 20.6973 96.465 20.0919C95.4883 19.4745 95 18.5361 95 17.277C95 16.611 95.116 16.1025 95.3479 15.7514C95.5799 15.4003 95.9217 15.2247 96.3734 15.2247C96.703 15.2247 96.9716 15.3095 97.1792 15.479C97.3867 15.6485 97.4905 15.8664 97.4905 16.1328C97.4905 16.375 97.4722 16.5868 97.4355 16.7684C97.4355 16.8169 97.4233 16.9016 97.3989 17.0227C97.3867 17.1438 97.3806 17.2709 97.3806 17.4041C97.3806 17.9489 97.6553 18.3545 98.2046 18.6209C98.7662 18.8872 99.5475 19.0204 100.549 19.0204C101.586 19.0204 102.398 18.8388 102.984 18.4756C103.57 18.1003 103.863 17.5796 103.863 16.9137C103.863 16.5021 103.729 16.151 103.46 15.8604C103.192 15.5577 102.856 15.3095 102.453 15.1158C102.05 14.91 101.483 14.6617 100.75 14.3712C99.81 14.0079 99.0409 13.6629 98.4427 13.336C97.8567 13.0091 97.3501 12.5672 96.9228 12.0102C96.5077 11.4412 96.3002 10.7389 96.3002 9.90352C96.3002 9.03178 96.5321 8.25691 96.996 7.57889C97.4722 6.90087 98.1497 6.3742 99.0287 5.99886C99.9199 5.62353 100.964 5.43587 102.16 5.43587C103.051 5.43587 103.869 5.56905 104.614 5.83542C105.359 6.08967 105.951 6.48316 106.39 7.01589C106.842 7.54862 107.068 8.20242 107.068 8.9773C107.068 9.74007 106.952 10.3152 106.72 10.7026C106.488 11.09 106.146 11.2838 105.694 11.2838C105.377 11.2838 105.108 11.1869 104.889 10.9932C104.681 10.7995 104.577 10.5694 104.577 10.3031C104.577 10.073 104.596 9.86115 104.632 9.66743C104.669 9.3042 104.687 9.07416 104.687 8.9773C104.687 8.46879 104.437 8.08135 103.936 7.81498C103.436 7.54862 102.813 7.41544 102.069 7.41544C101.019 7.41544 100.213 7.60916 99.6513 7.9966C99.1019 8.37193 98.8273 8.90466 98.8273 9.59478C98.8273 10.0549 98.9677 10.4484 99.2484 10.7753C99.5414 11.1022 99.9016 11.3746 100.329 11.5925C100.756 11.8104 101.354 12.0708 102.123 12.3734C103.051 12.7488 103.796 13.0878 104.358 13.3905C104.919 13.6932 105.395 14.1048 105.786 14.6254C106.189 15.146 106.39 15.7877 106.39 16.5505C106.39 17.9792 105.841 19.081 104.742 19.8558C103.656 20.6186 102.197 21 100.365 21ZM115.942 16.8048C116.1 16.8048 116.223 16.8774 116.308 17.0227C116.406 17.168 116.455 17.3678 116.455 17.622C116.455 18.1063 116.339 18.4817 116.107 18.748C115.582 19.3897 115.008 19.9164 114.385 20.328C113.763 20.7397 113.048 20.9455 112.243 20.9455C109.752 20.9455 108.507 19.2081 108.507 15.7333C108.507 15.2005 108.525 14.6617 108.562 14.1169H107.848C107.481 14.1169 107.231 14.0503 107.097 13.9171C106.975 13.784 106.914 13.5721 106.914 13.2815C106.914 12.6035 107.188 12.2645 107.738 12.2645H108.782C108.989 10.9327 109.307 9.71585 109.734 8.61407C110.161 7.5123 110.674 6.63451 111.272 5.98071C111.883 5.32691 112.536 5 113.232 5C113.744 5 114.147 5.22399 114.44 5.67196C114.733 6.11994 114.88 6.68294 114.88 7.36095C114.88 9.23761 114.086 10.8721 112.499 12.2645H114.55C114.745 12.2645 114.886 12.3069 114.971 12.3916C115.057 12.4764 115.099 12.6338 115.099 12.8638C115.099 13.6992 114.41 14.1169 113.03 14.1169H110.796C110.772 14.7223 110.759 15.1945 110.759 15.5335C110.759 16.7927 110.906 17.6765 111.199 18.185C111.504 18.6935 111.98 18.9478 112.627 18.9478C113.152 18.9478 113.616 18.7904 114.019 18.4756C114.422 18.1608 114.898 17.6886 115.447 17.059C115.594 16.8895 115.759 16.8048 115.942 16.8048ZM112.737 6.74347C112.554 6.74347 112.346 6.97352 112.115 7.4336C111.895 7.88158 111.681 8.51116 111.474 9.32236C111.278 10.1215 111.113 11.0114 110.979 11.9921C111.699 11.3746 112.237 10.6845 112.591 9.92168C112.957 9.14681 113.14 8.44457 113.14 7.81498C113.14 7.10064 113.006 6.74347 112.737 6.74347ZM116.264 20.9455C115.8 20.9455 115.47 20.7034 115.275 20.2191C115.092 19.7348 115 18.9599 115 17.8944C115 16.3205 115.226 14.8252 115.678 13.4086C115.788 13.0575 115.965 12.8033 116.209 12.6459C116.465 12.4764 116.819 12.3916 117.271 12.3916C117.515 12.3916 117.686 12.4219 117.784 12.4824C117.881 12.5429 117.93 12.658 117.93 12.8275C117.93 13.0212 117.839 13.4571 117.655 14.1351C117.533 14.6194 117.436 15.0431 117.362 15.4064C117.289 15.7696 117.228 16.2176 117.179 16.7503C117.582 15.709 118.034 14.8615 118.534 14.2077C119.035 13.5539 119.523 13.0878 119.999 12.8093C120.488 12.5308 120.933 12.3916 121.336 12.3916C122.13 12.3916 122.527 12.7851 122.527 13.5721C122.527 13.7295 122.472 14.1109 122.362 14.7162C122.264 15.2005 122.215 15.5032 122.215 15.6243C122.215 16.048 122.368 16.2599 122.673 16.2599C123.015 16.2599 123.454 15.9936 123.992 15.4608C124.15 15.3034 124.315 15.2247 124.486 15.2247C124.645 15.2247 124.767 15.2974 124.852 15.4427C124.95 15.5759 124.999 15.7575 124.999 15.9875C124.999 16.4355 124.877 16.7866 124.632 17.0409C124.291 17.392 123.888 17.6947 123.424 17.9489C122.972 18.1911 122.49 18.3121 121.977 18.3121C121.33 18.3121 120.836 18.1487 120.494 17.8218C120.164 17.4949 119.999 17.053 119.999 16.496C119.999 16.3144 120.018 16.1328 120.054 15.9512C120.079 15.709 120.091 15.5456 120.091 15.4608C120.091 15.2671 120.024 15.1703 119.89 15.1703C119.706 15.1703 119.462 15.3761 119.157 15.7877C118.864 16.1873 118.571 16.72 118.278 17.3859C117.985 18.0518 117.747 18.7541 117.564 19.4926C117.43 20.0617 117.271 20.4491 117.088 20.6549C116.917 20.8487 116.642 20.9455 116.264 20.9455ZM131.464 16.8048C131.623 16.8048 131.745 16.8774 131.831 17.0227C131.928 17.168 131.977 17.3678 131.977 17.622C131.977 18.1063 131.861 18.4817 131.629 18.748C131.177 19.2929 130.537 19.7953 129.706 20.2554C128.888 20.7155 128.009 20.9455 127.069 20.9455C125.788 20.9455 124.793 20.6005 124.084 19.9103C123.376 19.2202 123.022 18.2758 123.022 17.0772C123.022 16.2418 123.199 15.4669 123.553 14.7526C123.907 14.0261 124.396 13.451 125.018 13.0272C125.653 12.6035 126.367 12.3916 127.161 12.3916C127.869 12.3916 128.437 12.6035 128.864 13.0272C129.291 13.4389 129.505 14.0019 129.505 14.7162C129.505 15.5516 129.2 16.272 128.589 16.8774C127.991 17.4707 126.972 17.9429 125.531 18.294C125.836 18.8509 126.416 19.1294 127.271 19.1294C127.82 19.1294 128.443 18.9417 129.139 18.5664C129.847 18.179 130.457 17.6765 130.97 17.059C131.116 16.8895 131.281 16.8048 131.464 16.8048ZM126.85 14.1714C126.398 14.1714 126.013 14.4317 125.696 14.9523C125.391 15.4729 125.238 16.1025 125.238 16.8411V16.8774C125.958 16.7079 126.526 16.4537 126.941 16.1146C127.356 15.7756 127.564 15.3821 127.564 14.9342C127.564 14.7041 127.497 14.5225 127.362 14.3893C127.24 14.244 127.069 14.1714 126.85 14.1714ZM138.653 16.8048C138.812 16.8048 138.934 16.8774 139.02 17.0227C139.117 17.168 139.166 17.3678 139.166 17.622C139.166 18.1063 139.05 18.4817 138.818 18.748C138.367 19.2929 137.726 19.7953 136.895 20.2554C136.077 20.7155 135.199 20.9455 134.258 20.9455C132.977 20.9455 131.982 20.6005 131.274 19.9103C130.565 19.2202 130.211 18.2758 130.211 17.0772C130.211 16.2418 130.388 15.4669 130.743 14.7526C131.097 14.0261 131.585 13.451 132.208 13.0272C132.842 12.6035 133.557 12.3916 134.35 12.3916C135.058 12.3916 135.626 12.6035 136.053 13.0272C136.48 13.4389 136.694 14.0019 136.694 14.7162C136.694 15.5516 136.389 16.272 135.778 16.8774C135.18 17.4707 134.161 17.9429 132.72 18.294C133.025 18.8509 133.605 19.1294 134.46 19.1294C135.009 19.1294 135.632 18.9417 136.328 18.5664C137.036 18.179 137.646 17.6765 138.159 17.059C138.305 16.8895 138.47 16.8048 138.653 16.8048ZM134.039 14.1714C133.587 14.1714 133.202 14.4317 132.885 14.9523C132.58 15.4729 132.427 16.1025 132.427 16.8411V16.8774C133.148 16.7079 133.715 16.4537 134.13 16.1146C134.545 15.7756 134.753 15.3821 134.753 14.9342C134.753 14.7041 134.686 14.5225 134.551 14.3893C134.429 14.244 134.258 14.1714 134.039 14.1714ZM140.697 14.1169C140.672 14.7223 140.66 15.1945 140.66 15.5335C140.66 16.4052 140.703 17.0893 140.788 17.5857C140.886 18.07 141.038 18.4211 141.246 18.639C141.466 18.8449 141.765 18.9478 142.143 18.9478C142.339 18.9478 142.571 18.8872 142.839 18.7662C143.108 18.6451 143.352 18.4877 143.572 18.294C143.706 18.1729 143.84 18.1124 143.975 18.1124C144.121 18.1124 144.237 18.1971 144.322 18.3666C144.42 18.524 144.469 18.7177 144.469 18.9478C144.469 19.1778 144.42 19.4018 144.322 19.6197C144.237 19.8377 144.103 20.0193 143.92 20.1646C143.285 20.6852 142.564 20.9455 141.759 20.9455C140.599 20.9455 139.75 20.4673 139.213 19.5108C138.676 18.5422 138.408 17.283 138.408 15.7333C138.408 15.2005 138.426 14.6617 138.463 14.1169H137.748C137.382 14.1169 137.132 14.0503 136.998 13.9171C136.875 13.784 136.814 13.5721 136.814 13.2815C136.814 12.6035 137.089 12.2645 137.638 12.2645H138.682C138.89 10.9327 139.207 9.71585 139.634 8.61407C140.062 7.5123 140.575 6.63451 141.173 5.98071C141.783 5.32691 142.436 5 143.132 5C143.645 5 144.048 5.22399 144.341 5.67196C144.634 6.11994 144.78 6.68294 144.78 7.36095C144.78 9.23761 143.987 10.8721 142.4 12.2645H144.451C144.646 12.2645 144.786 12.3069 144.872 12.3916C144.957 12.4764 145 12.6338 145 12.8638C145 13.6992 144.31 14.1169 142.931 14.1169H140.697ZM142.638 6.74347C142.455 6.74347 142.247 6.97352 142.015 7.4336C141.795 7.88158 141.582 8.51116 141.374 9.32236C141.179 10.1215 141.014 11.0114 140.88 11.9921C141.6 11.3746 142.137 10.6845 142.491 9.92168C142.857 9.14681 143.041 8.44457 143.041 7.81498C143.041 7.10064 142.906 6.74347 142.638 6.74347Z" fill="#2F2105"/>
</svg>
