<svg width="968" height="484" viewBox="0 0 968 484" fill="none" xmlns="http://www.w3.org/2000/svg">
<g clip-path="url(#clip0_373_151)">
<rect width="968" height="484" fill="#F6EBDA"/>
<g style="mix-blend-mode:overlay">
<path d="M304.345 131.864C307.312 138.296 308.038 145.847 306.572 151.635C304.059 158.14 305.302 160.835 292.257 166.852C279.212 172.869 278.224 170.86 270.898 168.089C263.572 165.317 260.961 160.329 257.994 153.896L262.541 151.799C266.767 160.962 272.705 163.56 272.705 163.56C272.705 163.56 278.904 167.785 290.27 162.543C301.635 157.301 301.757 150.161 301.757 150.161C301.757 150.161 302.633 141.804 299.153 134.259L304.345 131.864Z" fill="#2F2105"/>
<path d="M296.436 135.636C298.599 140.326 298.997 145.597 297.543 150.289C296.088 154.982 292.9 158.712 288.68 160.658C284.46 162.605 279.554 162.608 275.04 160.669C270.526 158.729 266.775 155.004 264.612 150.314C264.612 150.314 275.489 149.989 280.524 142.975C285.559 135.962 296.436 135.636 296.436 135.636Z" fill="#2F2105"/>
<path d="M303.175 142.897C304.298 144.117 305.813 144.939 307.495 145.24C309.177 145.542 310.937 145.307 312.513 144.57C314.089 143.834 315.398 142.634 316.245 141.151C317.092 139.668 317.432 137.979 317.214 136.336C316.996 134.693 316.233 133.183 315.036 132.03C313.84 130.877 312.276 130.143 310.574 129.937C308.873 129.73 307.126 130.063 305.593 130.884C304.059 131.706 302.821 132.973 302.062 134.498L305.771 136.107C306.139 135.368 306.739 134.754 307.483 134.355C308.226 133.957 309.073 133.796 309.898 133.896C310.723 133.996 311.482 134.352 312.062 134.911C312.642 135.47 313.012 136.202 313.117 136.999C313.223 137.796 313.058 138.614 312.648 139.333C312.237 140.053 311.602 140.634 310.838 140.991C310.074 141.349 309.22 141.463 308.405 141.316C307.589 141.17 306.855 140.772 306.31 140.18L303.175 142.897Z" fill="#2F2105"/>
<path d="M314.471 160.527L272.975 179.667C272.194 180.028 271.894 181.044 272.306 181.937C272.718 182.83 273.685 183.261 274.466 182.901L315.963 163.761C316.744 163.401 317.044 162.385 316.632 161.492C316.22 160.599 315.253 160.167 314.471 160.527Z" fill="#2F2105"/>
</g>
<g style="mix-blend-mode:overlay">
<path d="M683.455 186.574C683.985 193.796 681.968 201.285 678.487 206.298C673.746 211.622 673.968 214.648 659.321 215.723C644.673 216.798 644.449 214.52 638.432 209.237C632.415 203.953 631.708 198.241 631.178 191.018L636.282 190.644C637.037 200.931 641.788 205.551 641.788 205.551C641.788 205.551 646.204 211.821 658.966 210.885C671.727 209.949 674.408 203.158 674.408 203.158C674.408 203.158 678.247 195.474 677.626 187.002L683.455 186.574Z" fill="#2F2105"/>
<path d="M674.53 187.344C674.917 192.61 673.405 197.798 670.328 201.768C667.25 205.737 662.86 208.162 658.121 208.51C653.383 208.858 648.685 207.099 645.061 203.622C641.438 200.144 639.185 195.232 638.798 189.966C638.798 189.966 649.326 193.56 656.664 188.655C664.003 183.75 674.53 187.344 674.53 187.344Z" fill="#2F2105"/>
<path d="M678.374 196.714C679.01 198.285 680.164 199.616 681.666 200.509C683.168 201.401 684.937 201.808 686.711 201.669C688.484 201.53 690.167 200.852 691.51 199.737C692.854 198.621 693.785 197.127 694.167 195.476C694.549 193.825 694.36 192.105 693.629 190.572C692.898 189.039 691.664 187.775 690.109 186.966C688.555 186.158 686.764 185.848 685.001 186.084C683.238 186.32 681.598 187.088 680.324 188.275L683.296 191.148C683.914 190.572 684.709 190.2 685.564 190.085C686.418 189.971 687.287 190.121 688.04 190.513C688.794 190.905 689.393 191.518 689.747 192.261C690.101 193.005 690.193 193.838 690.008 194.639C689.823 195.439 689.371 196.164 688.72 196.705C688.068 197.246 687.252 197.575 686.392 197.642C685.533 197.709 684.675 197.512 683.947 197.079C683.218 196.647 682.658 196.001 682.35 195.24L678.374 196.714Z" fill="#2F2105"/>
<path d="M682.855 217.646L636.262 221.065C635.385 221.13 634.734 221.994 634.807 222.997C634.881 224 635.652 224.76 636.529 224.696L683.121 221.277C683.999 221.213 684.65 220.348 684.577 219.345C684.503 218.342 683.732 217.582 682.855 217.646Z" fill="#2F2105"/>
</g>
<g style="mix-blend-mode:overlay">
<path d="M32.5122 24.8044C31.6631 35.3581 27.0751 45.727 20.9243 52.1918C12.8831 58.8252 12.5274 63.2466 -8.87643 61.5245C-30.2803 59.8024 -30.0948 56.4622 -37.6075 47.4824C-45.1201 38.5027 -44.8649 30.0908 -44.0158 19.5371L-36.5566 20.1373C-37.7661 35.17 -31.9345 42.9077 -31.9345 42.9077C-31.9345 42.9077 -26.9557 52.9547 -8.30764 54.4551C10.3404 55.9554 15.7321 46.7429 15.7321 46.7429C15.7321 46.7429 22.9979 36.499 23.994 24.1191L32.5122 24.8044Z" fill="#2F2105"/>
<path d="M19.4451 23.9221C18.826 31.6169 15.4817 38.7752 10.1479 43.8224C4.81405 48.8694 -2.07246 51.3919 -8.99647 50.8348C-15.9205 50.2777 -22.3151 46.6867 -26.7734 40.8518C-31.2316 35.0167 -33.3885 27.4158 -32.7693 19.721C-32.7693 19.721 -18.3616 27.268 -6.66212 21.8215C5.03734 16.375 19.4451 23.9221 19.4451 23.9221Z" fill="#2F2105"/>
<path d="M22.903 38.3199C23.471 40.7322 24.8419 42.913 26.8124 44.5384C28.7828 46.1638 31.2478 47.1475 33.8411 47.343C36.4344 47.5385 39.018 46.9355 41.2084 45.6239C43.3986 44.3122 45.0788 42.3614 45.9994 40.0613C46.92 37.7613 47.0319 35.2345 46.3186 32.8561C45.6053 30.4777 44.1049 28.3746 42.0397 26.8588C39.9747 25.3431 37.4554 24.4957 34.8558 24.4423C32.2561 24.3889 29.7146 25.1324 27.6088 26.5625L31.2601 31.3773C32.2811 30.6839 33.5134 30.3234 34.7739 30.3493C36.0344 30.3752 37.2558 30.7861 38.2571 31.521C39.2584 32.2559 39.9861 33.2757 40.3319 34.4289C40.6777 35.5821 40.6234 36.8073 40.1771 37.9225C39.7306 39.0377 38.9159 39.9836 37.8541 40.6195C36.792 41.2557 35.5393 41.5479 34.2819 41.4532C33.0244 41.3584 31.8293 40.8815 30.8739 40.0933C29.9184 39.3052 29.2536 38.2478 28.9784 37.0781L22.903 38.3199Z" fill="#2F2105"/>
<path d="M24.6978 69.5659L-43.3873 64.0879C-44.6692 63.9847 -45.8039 65.0888 -45.9218 66.5539C-46.0397 68.0191 -45.0961 69.2904 -43.8142 69.3935L24.271 74.8715C25.5528 74.9747 26.6876 73.8706 26.8055 72.4054C26.9234 70.9403 25.9797 69.669 24.6978 69.5659Z" fill="#2F2105"/>
</g>
<g style="mix-blend-mode:overlay">
<path d="M26.4977 330.991C26.1127 335.775 24.0329 340.476 21.2446 343.406C17.5994 346.413 17.4381 348.418 7.73538 347.637C-1.96738 346.856 -1.88332 345.342 -5.28894 341.272C-8.69457 337.201 -8.57888 333.388 -8.19395 328.603L-4.81255 328.876C-5.36084 335.69 -2.71725 339.198 -2.71725 339.198C-2.71725 339.198 -0.460272 343.752 7.99323 344.432C16.4467 345.113 18.8909 340.936 18.8909 340.936C18.8909 340.936 22.1846 336.293 22.6362 330.681L26.4977 330.991Z" fill="#2F2105"/>
<path d="M20.5741 330.591C20.2934 334.079 18.7774 337.324 16.3595 339.612C13.9415 341.9 10.8198 343.044 7.68097 342.791C4.54219 342.539 1.64338 340.911 -0.377633 338.266C-2.39864 335.621 -3.37638 332.175 -3.09572 328.687C-3.09572 328.687 3.43559 332.108 8.73918 329.639C14.0428 327.17 20.5741 330.591 20.5741 330.591Z" fill="#2F2105"/>
<path d="M22.1416 337.118C22.3991 338.212 23.0205 339.2 23.9138 339.937C24.807 340.674 25.9244 341.12 27.1 341.208C28.2756 341.297 29.4468 341.024 30.4398 340.429C31.4326 339.834 32.1943 338.95 32.6116 337.907C33.029 336.865 33.0797 335.719 32.7563 334.641C32.433 333.563 31.7528 332.61 30.8166 331.923C29.8805 331.235 28.7385 330.851 27.56 330.827C26.3815 330.803 25.2295 331.14 24.2748 331.788L25.93 333.971C26.3929 333.656 26.9515 333.493 27.5229 333.505C28.0943 333.517 28.648 333.703 29.1019 334.036C29.5558 334.369 29.8857 334.831 30.0424 335.354C30.1992 335.877 30.1746 336.432 29.9723 336.938C29.7699 337.443 29.4006 337.872 28.9192 338.16C28.4378 338.449 27.8699 338.581 27.2999 338.538C26.7298 338.495 26.188 338.279 25.755 337.922C25.3218 337.565 25.0205 337.085 24.8957 336.555L22.1416 337.118Z" fill="#2F2105"/>
<path d="M22.9552 351.282L-7.90904 348.799C-8.49015 348.752 -9.00455 349.253 -9.05799 349.917C-9.11142 350.581 -8.68366 351.158 -8.10255 351.204L22.7617 353.688C23.3428 353.734 23.8572 353.234 23.9107 352.57C23.9641 351.905 23.5363 351.329 22.9552 351.282Z" fill="#2F2105"/>
</g>
<g style="mix-blend-mode:overlay">
<path d="M404.512 328.804C403.663 339.358 399.075 349.727 392.924 356.192C384.883 362.825 384.527 367.247 363.124 365.525C341.72 363.802 341.905 360.462 334.393 351.482C326.88 342.503 327.135 334.091 327.984 323.537L335.443 324.137C334.234 339.17 340.066 346.908 340.066 346.908C340.066 346.908 345.044 356.955 363.692 358.455C382.34 359.955 387.732 350.743 387.732 350.743C387.732 350.743 394.998 340.499 395.994 328.119L404.512 328.804Z" fill="#2F2105"/>
<path d="M391.445 327.922C390.826 335.617 387.482 342.775 382.148 347.822C376.814 352.869 369.928 355.392 363.004 354.835C356.08 354.278 349.685 350.687 345.227 344.852C340.768 339.017 338.612 331.416 339.231 323.721C339.231 323.721 353.638 331.268 365.338 325.822C377.037 320.375 391.445 327.922 391.445 327.922Z" fill="#2F2105"/>
<path d="M394.903 342.32C395.471 344.732 396.842 346.913 398.812 348.538C400.783 350.164 403.248 351.148 405.841 351.343C408.434 351.538 411.018 350.936 413.208 349.624C415.399 348.312 417.079 346.361 417.999 344.061C418.92 341.761 419.032 339.234 418.319 336.856C417.605 334.478 416.105 332.375 414.04 330.859C411.975 329.343 409.455 328.496 406.856 328.442C404.256 328.389 401.715 329.132 399.609 330.562L403.26 335.377C404.281 334.684 405.513 334.323 406.774 334.349C408.034 334.375 409.256 334.786 410.257 335.521C411.258 336.256 411.986 337.276 412.332 338.429C412.678 339.582 412.623 340.807 412.177 341.923C411.731 343.038 410.916 343.984 409.854 344.62C408.792 345.256 407.539 345.548 406.282 345.453C405.024 345.358 403.829 344.881 402.874 344.093C401.918 343.305 401.254 342.248 400.978 341.078L394.903 342.32Z" fill="#2F2105"/>
<path d="M396.698 373.566L328.613 368.088C327.331 367.985 326.196 369.089 326.078 370.554C325.96 372.019 326.904 373.29 328.186 373.394L396.271 378.872C397.553 378.975 398.688 377.871 398.805 376.405C398.923 374.94 397.98 373.669 396.698 373.566Z" fill="#2F2105"/>
</g>
<g style="mix-blend-mode:overlay">
<path d="M994.498 330.991C994.113 335.775 992.033 340.476 989.245 343.406C985.6 346.413 985.438 348.418 975.736 347.637C966.033 346.856 966.117 345.342 962.711 341.272C959.306 337.201 959.421 333.388 959.806 328.603L963.188 328.876C962.639 335.69 965.283 339.198 965.283 339.198C965.283 339.198 967.54 343.752 975.993 344.432C984.447 345.113 986.891 340.936 986.891 340.936C986.891 340.936 990.185 336.293 990.636 330.681L994.498 330.991Z" fill="#2F2105"/>
<path d="M988.574 330.591C988.294 334.079 986.778 337.324 984.36 339.612C981.942 341.9 978.82 343.044 975.681 342.791C972.542 342.539 969.644 340.911 967.622 338.266C965.601 335.621 964.624 332.175 964.904 328.687C964.904 328.687 971.436 332.108 976.739 329.639C982.043 327.17 988.574 330.591 988.574 330.591Z" fill="#2F2105"/>
<path d="M990.142 337.118C990.399 338.212 991.021 339.2 991.914 339.937C992.807 340.674 993.925 341.12 995.1 341.208C996.276 341.297 997.447 341.024 998.44 340.429C999.433 339.834 1000.19 338.95 1000.61 337.907C1001.03 336.865 1001.08 335.719 1000.76 334.641C1000.43 333.563 999.753 332.61 998.817 331.923C997.881 331.235 996.739 330.851 995.56 330.827C994.382 330.803 993.23 331.14 992.275 331.788L993.93 333.971C994.393 333.656 994.952 333.493 995.523 333.505C996.094 333.517 996.648 333.703 997.102 334.036C997.556 334.369 997.886 334.831 998.043 335.354C998.199 335.877 998.175 336.432 997.972 336.938C997.77 337.443 997.401 337.872 996.919 338.16C996.438 338.449 995.87 338.581 995.3 338.538C994.73 338.495 994.188 338.279 993.755 337.922C993.322 337.565 993.021 337.085 992.896 336.555L990.142 337.118Z" fill="#2F2105"/>
<path d="M990.955 351.282L960.091 348.799C959.51 348.752 958.996 349.253 958.942 349.917C958.889 350.581 959.316 351.158 959.898 351.204L990.762 353.688C991.343 353.734 991.857 353.234 991.911 352.57C991.964 351.905 991.536 351.329 990.955 351.282Z" fill="#2F2105"/>
</g>
<g style="mix-blend-mode:overlay">
<path d="M1000.51 24.8044C999.663 35.3581 995.075 45.727 988.924 52.1918C980.883 58.8252 980.527 63.2466 959.124 61.5245C937.72 59.8024 937.905 56.4622 930.393 47.4824C922.88 38.5027 923.135 30.0908 923.984 19.5371L931.443 20.1373C930.234 35.17 936.066 42.9077 936.066 42.9077C936.066 42.9077 941.044 52.9547 959.692 54.4551C978.34 55.9554 983.732 46.7429 983.732 46.7429C983.732 46.7429 990.998 36.499 991.994 24.1191L1000.51 24.8044Z" fill="#2F2105"/>
<path d="M987.445 23.9221C986.826 31.6169 983.482 38.7752 978.148 43.8224C972.814 48.8694 965.928 51.3919 959.004 50.8348C952.08 50.2777 945.685 46.6867 941.227 40.8518C936.768 35.0167 934.612 27.4158 935.231 19.721C935.231 19.721 949.638 27.268 961.338 21.8215C973.037 16.375 987.445 23.9221 987.445 23.9221Z" fill="#2F2105"/>
<path d="M990.903 38.3199C991.471 40.7322 992.842 42.913 994.812 44.5384C996.783 46.1638 999.248 47.1475 1001.84 47.343C1004.43 47.5385 1007.02 46.9355 1009.21 45.6239C1011.4 44.3122 1013.08 42.3614 1014 40.0613C1014.92 37.7613 1015.03 35.2345 1014.32 32.8561C1013.61 30.4777 1012.1 28.3746 1010.04 26.8588C1007.97 25.3431 1005.46 24.4957 1002.86 24.4423C1000.26 24.3889 997.715 25.1324 995.609 26.5625L999.26 31.3773C1000.28 30.6839 1001.51 30.3234 1002.77 30.3493C1004.03 30.3752 1005.26 30.7861 1006.26 31.521C1007.26 32.2559 1007.99 33.2757 1008.33 34.4289C1008.68 35.5821 1008.62 36.8073 1008.18 37.9225C1007.73 39.0377 1006.92 39.9836 1005.85 40.6195C1004.79 41.2557 1003.54 41.5479 1002.28 41.4532C1001.02 41.3584 999.829 40.8815 998.874 40.0933C997.918 39.3052 997.254 38.2478 996.978 37.0781L990.903 38.3199Z" fill="#2F2105"/>
<path d="M992.698 69.5659L924.613 64.0879C923.331 63.9847 922.196 65.0888 922.078 66.5539C921.96 68.0191 922.904 69.2904 924.186 69.3935L992.271 74.8715C993.553 74.9747 994.688 73.8706 994.805 72.4054C994.923 70.9403 993.98 69.669 992.698 69.5659Z" fill="#2F2105"/>
</g>
</g>
<defs>
<clipPath id="clip0_373_151">
<rect width="968" height="484" fill="white"/>
</clipPath>
</defs>
</svg>
